<svg xmlns="http://www.w3.org/2000/svg" viewBox="0 0 160 160" fill="none">
  <defs>
    <linearGradient id="muamalatGreen" x1="0%" y1="0%" x2="100%" y2="100%">
      <stop offset="0%" stop-color="#4CA82B" />
      <stop offset="100%" stop-color="#1B7A33" />
    </linearGradient>
  </defs>
  <path d="M 80 14 C 116.45 14 146 43.55 146 80 C 146 116.45 116.45 146 80 146 C 43.55 146 14 116.45 14 80 C 14 43.55 43.55 14 80 14 Z" fill="#F4FBF6" stroke="#4CA82B" stroke-width="4" />
  <g transform="translate(30, 26) scale(0.62)" fill="#3DA62A">
    <path d="M78.6,15.2 C73.1,12.8 66.8,12 60.5,13.2 C45.2,16.1 33.1,28.7 30.5,44.1 C27.2,63.9 41.5,82.4 61.3,84 C66.8,84.4 72.3,83.1 77.2,80.4 C84.3,76.5 89.2,69.7 90.7,61.8 C91.2,59.3 89.3,57 86.8,57 C84.7,57 82.9,58.6 82.5,60.7 C81.4,66.6 77.6,71.7 72.2,74.5 C68.3,76.5 63.8,77.3 59.4,76.8 C44.8,75 34,60.8 36.4,46.1 C38.4,34.1 48,24.3 60,22.1 C64.6,21.2 69.4,21.9 73.6,23.8 C76,24.9 78.8,23.9 79.8,21.5 C80.9,19 79.8,16.2 78.6,15.2 Z" />
    <path d="M120.4,32.6 C115.1,24.8 106.8,19.3 97.4,17.3 C95,16.8 92.6,18.4 92.1,20.8 C91.6,23.2 93.2,25.6 95.6,26.1 C102.8,27.6 109.1,31.8 113.1,37.8 C121.2,49.8 118,66.1 106,74.2 C101.3,77.3 95.7,78.9 90,78.7 C87.5,78.6 85.4,80.6 85.3,83.1 C85.2,85.6 87.2,87.7 89.7,87.8 C97.2,88 104.7,85.8 111,81.6 C126.9,70.8 131.2,49.1 120.4,32.6 Z" />
    <circle cx="94" cy="54" r="7" />
    <circle cx="68" cy="46" r="7" />
    <path d="M50,110 C70,135 110,135 130,110 C131.5,108 134.5,108 136,110 C137.5,112 136.5,115 134,118 C110,145 68,145 44,118 C42,115 42,112 44,110 C46,108 48.5,108 50,110 Z" />
  </g>
</svg>